<?xml version="1.0" encoding="UTF-8"?>
<svg xmlns="http://www.w3.org/2000/svg" version="1.1" xmlns:xlink="http://www.w3.org/1999/xlink" viewBox="0 0 3000 2025">
  <defs>
    <style>
      .cls-1 {
        clip-path: url(#clippath-6);
      }

      .cls-2 {
        clip-path: url(#clippath-7);
      }

      .cls-3 {
        fill: #2a2d4b;
      }

      .cls-4 {
        clip-path: url(#clippath-4);
      }

      .cls-5 {
        fill: #995042;
      }

      .cls-6 {
        fill: #754436;
      }

      .cls-7 {
        fill: #f7941d;
      }

      .cls-8 {
        fill: #da927e;
      }

      .cls-9 {
        clip-path: url(#clippath-9);
      }

      .cls-10 {
        fill: #bcbec0;
        opacity: .27;
      }

      .cls-11 {
        fill: #f26522;
      }

      .cls-12 {
        clip-path: url(#clippath-1);
      }

      .cls-13 {
        fill: #f1f2f2;
      }

      .cls-14 {
        clip-path: url(#clippath-5);
      }

      .cls-15 {
        clip-path: url(#clippath-8);
      }

      .cls-16 {
        clip-path: url(#clippath-3);
      }

      .cls-17 {
        fill: #a7a9ac;
      }

      .cls-18 {
        fill: #434d6a;
      }

      .cls-19 {
        clip-path: url(#clippath-2);
      }

      .cls-20 {
        fill: #ed1c24;
      }

      .cls-21 {
        fill: #52607c;
      }

      .cls-22 {
        clip-path: url(#clippath);
      }

      .cls-23 {
        fill: #f9ab5d;
      }
    </style>
    <clipPath id="clippath">
      <path class="cls-7" d="M954.73,904.19l-.95,192.18c-.02,3.29-2.7,5.94-5.98,5.92l-33.7-.17c-3.29-.02-5.94-2.7-5.92-5.98l.95-192.18c.02-3.29,2.7-5.94,5.98-5.92l33.7.17c3.29.02,5.94,2.7,5.92,5.98Z"/>
    </clipPath>
    <clipPath id="clippath-1">
      <path class="cls-7" d="M1000.47,904.42l-.95,192.18c-.02,3.29-2.7,5.94-5.98,5.92l-33.7-.17c-3.29-.02-5.94-2.7-5.92-5.98l.95-192.18c.02-3.29,2.7-5.94,5.98-5.92l33.7.17c3.29.02,5.94,2.7,5.92,5.98Z"/>
    </clipPath>
    <clipPath id="clippath-2">
      <path class="cls-7" d="M1045.78,904.64l-.95,192.18c-.02,3.29-2.7,5.94-5.98,5.92l-33.7-.17c-3.29-.02-5.94-2.7-5.92-5.98l.95-192.18c.02-3.29,2.7-5.94,5.98-5.92l33.7.17c3.29.02,5.94,2.7,5.92,5.98Z"/>
    </clipPath>
    <clipPath id="clippath-3">
      <path class="cls-7" d="M1651.82,1023.25l-189.15,2.11c-3.24.04-5.89-2.56-5.93-5.8l-.37-33.17c-.04-3.24,2.56-5.89,5.8-5.93l189.15-2.11c3.24-.04,5.89,2.56,5.93,5.8l.37,33.17c.04,3.24-2.56,5.89-5.8,5.93Z"/>
    </clipPath>
    <clipPath id="clippath-4">
      <rect class="cls-7" x="1457.06" y="1024.43" width="200.89" height="44.89" rx="5.86" ry="5.86" transform="translate(-11.56 17.4) rotate(-.64)"/>
    </clipPath>
    <clipPath id="clippath-5">
      <rect class="cls-7" x="1457.55" y="1069.03" width="200.89" height="44.89" rx="5.86" ry="5.86" transform="translate(-12.05 17.41) rotate(-.64)"/>
    </clipPath>
    <clipPath id="clippath-6">
      <path class="cls-7" d="M2040.84,905.97l2.11,189.15c.04,3.24-2.56,5.89-5.8,5.93l-33.17.37c-3.24.04-5.89-2.56-5.93-5.8l-2.11-189.15c-.04-3.24,2.56-5.89,5.8-5.93l33.17-.37c3.24-.04,5.89,2.56,5.93,5.8Z"/>
    </clipPath>
    <clipPath id="clippath-7">
      <path class="cls-7" d="M2085.86,905.47l2.11,189.15c.04,3.24-2.56,5.89-5.8,5.93l-33.17.37c-3.24.04-5.89-2.56-5.93-5.8l-2.11-189.15c-.04-3.24,2.56-5.89,5.8-5.93l33.17-.37c3.24-.04,5.89,2.56,5.93,5.8Z"/>
    </clipPath>
    <clipPath id="clippath-8">
      <path class="cls-7" d="M2130.46,904.98l2.11,189.15c.04,3.24-2.56,5.89-5.8,5.93l-33.17.37c-3.24.04-5.89-2.56-5.93-5.8l-2.11-189.15c-.04-3.24,2.56-5.89,5.8-5.93l33.17-.37c3.24-.04,5.89,2.56,5.93,5.8Z"/>
    </clipPath>
    <clipPath id="clippath-9">
      <rect class="cls-11" x="2185.25" y="1205.67" width="76.1" height="20.55" rx="3.65" ry="3.65"/>
    </clipPath>
  </defs>
  <!-- Generator: Adobe Illustrator 28.6.0, SVG Export Plug-In . SVG Version: 1.2.0 Build 709)  -->
  <g>
    <g id="_x34_04">
      <rect class="cls-13" width="3000" height="2025"/>
      <ellipse class="cls-10" cx="1525.78" cy="1100.42" rx="748.59" ry="32.84"/>
      <g>
        <g>
          <g>
            <path class="cls-7" d="M954.73,904.19l-.95,192.18c-.02,3.29-2.7,5.94-5.98,5.92l-33.7-.17c-3.29-.02-5.94-2.7-5.92-5.98l.95-192.18c.02-3.29,2.7-5.94,5.98-5.92l33.7.17c3.29.02,5.94,2.7,5.92,5.98Z"/>
            <g class="cls-22">
              <rect class="cls-11" x="838.12" y="984.77" width="217.64" height="30.99" transform="translate(-58.02 1942.22) rotate(-89.72)"/>
              <path class="cls-23" d="M915.96,903.75l-.96,192.68c-.02,4.9-4.02,8.86-8.93,8.84h0c-4.9-.02-8.86-4.02-8.84-8.93l.96-192.68c.02-4.9,4.02-8.86,8.93-8.84h0c4.9.02,8.86,4.02,8.84,8.93Z"/>
            </g>
          </g>
          <g>
            <g>
              <rect class="cls-18" x="921.62" y="1046.23" width="18.96" height="45.61" transform="translate(-142.55 1994.81) rotate(-89.72)"/>
              <rect class="cls-3" x="933.02" y="1057.69" width="18.96" height="22.8" transform="translate(-131.26 2006.27) rotate(-89.72)"/>
              <rect class="cls-21" x="902.24" y="1065.52" width="18.96" height="6.85" transform="translate(-161.73 1975.34) rotate(-89.72)"/>
            </g>
            <g>
              <rect class="cls-18" x="922.3" y="908.5" width="18.96" height="45.61" transform="translate(-4.13 1858.45) rotate(-89.72)"/>
              <rect class="cls-3" x="933.71" y="919.96" width="18.96" height="22.8" transform="translate(7.16 1869.91) rotate(-89.72)"/>
              <rect class="cls-21" x="902.92" y="927.78" width="18.96" height="6.85" transform="translate(-23.32 1838.97) rotate(-89.72)"/>
            </g>
          </g>
        </g>
        <g>
          <g>
            <path class="cls-7" d="M1000.47,904.42l-.95,192.18c-.02,3.29-2.7,5.94-5.98,5.92l-33.7-.17c-3.29-.02-5.94-2.7-5.92-5.98l.95-192.18c.02-3.29,2.7-5.94,5.98-5.92l33.7.17c3.29.02,5.94,2.7,5.92,5.98Z"/>
            <g class="cls-12">
              <rect class="cls-11" x="883.86" y="985" width="217.64" height="30.99" transform="translate(-12.73 1988.19) rotate(-89.72)"/>
              <path class="cls-23" d="M961.71,903.97l-.96,192.68c-.02,4.9-4.02,8.86-8.92,8.84h0c-4.9-.02-8.86-4.02-8.84-8.93l.96-192.68c.02-4.9,4.02-8.86,8.92-8.84h0c4.9.02,8.86,4.02,8.84,8.93Z"/>
            </g>
          </g>
          <g>
            <g>
              <rect class="cls-18" x="967.36" y="1046.46" width="18.96" height="45.61" transform="translate(-97.26 2040.78) rotate(-89.72)"/>
              <rect class="cls-3" x="978.76" y="1057.92" width="18.96" height="22.8" transform="translate(-85.97 2052.24) rotate(-89.72)"/>
              <rect class="cls-21" x="947.98" y="1065.74" width="18.96" height="6.85" transform="translate(-116.44 2021.31) rotate(-89.72)"/>
            </g>
            <g>
              <rect class="cls-18" x="968.05" y="908.72" width="18.96" height="45.61" transform="translate(41.16 1904.42) rotate(-89.72)"/>
              <rect class="cls-3" x="979.45" y="920.18" width="18.96" height="22.8" transform="translate(52.45 1915.88) rotate(-89.72)"/>
              <rect class="cls-21" x="948.67" y="928.01" width="18.96" height="6.85" transform="translate(21.97 1884.94) rotate(-89.72)"/>
            </g>
          </g>
        </g>
        <g>
          <g>
            <path class="cls-7" d="M1045.78,904.64l-.95,192.18c-.02,3.29-2.7,5.94-5.98,5.92l-33.7-.17c-3.29-.02-5.94-2.7-5.92-5.98l.95-192.18c.02-3.29,2.7-5.94,5.98-5.92l33.7.17c3.29.02,5.94,2.7,5.92,5.98Z"/>
            <g class="cls-19">
              <rect class="cls-11" x="929.18" y="985.22" width="217.64" height="30.99" transform="translate(32.14 2033.73) rotate(-89.72)"/>
              <path class="cls-23" d="M1007.02,904.2l-.96,192.68c-.02,4.9-4.02,8.86-8.93,8.84h0c-4.9-.02-8.86-4.02-8.84-8.93l.96-192.68c.02-4.9,4.02-8.86,8.92-8.84h0c4.9.02,8.86,4.02,8.84,8.93Z"/>
            </g>
          </g>
          <g>
            <g>
              <rect class="cls-18" x="1012.68" y="1046.68" width="18.96" height="45.61" transform="translate(-52.39 2086.32) rotate(-89.72)"/>
              <rect class="cls-3" x="1024.08" y="1058.14" width="18.96" height="22.8" transform="translate(-41.1 2097.78) rotate(-89.72)"/>
              <rect class="cls-21" x="993.3" y="1065.97" width="18.96" height="6.85" transform="translate(-71.58 2066.85) rotate(-89.72)"/>
            </g>
            <g>
              <rect class="cls-18" x="1013.36" y="908.95" width="18.96" height="45.61" transform="translate(86.02 1949.95) rotate(-89.72)"/>
              <rect class="cls-3" x="1024.76" y="920.41" width="18.96" height="22.8" transform="translate(97.3 1961.41) rotate(-89.72)"/>
              <rect class="cls-21" x="993.98" y="928.23" width="18.96" height="6.85" transform="translate(66.83 1930.48) rotate(-89.72)"/>
            </g>
          </g>
        </g>
      </g>
      <g>
        <path class="cls-17" d="M1072.6,1004.1h-218.61v-74.91l225.42-303.06h119.18v282.62h67.42v95.34h-67.42v98.07h-125.99v-98.07ZM1090.99,908.75v-136.2l-100.11,136.2h100.11Z"/>
        <path class="cls-17" d="M1389.28,1082.76c-33.15-19.75-58.69-48.24-76.62-85.47-17.94-37.22-26.9-81.49-26.9-132.8s8.85-95.57,26.56-132.8c17.71-37.22,43.01-65.82,75.94-85.81,32.91-19.97,71.85-29.97,116.8-29.97s83.87,9.99,116.8,29.97c32.91,19.98,58.23,48.59,75.93,85.81,17.71,37.23,26.56,81.5,26.56,132.8s-8.97,95.58-26.9,132.8c-17.94,37.23-43.48,65.72-76.62,85.47-33.15,19.75-71.74,29.62-115.78,29.62s-82.64-9.87-115.77-29.62ZM1575.88,963.92c16.79-23.6,25.2-56.29,25.2-98.07s-8.29-75.48-24.86-99.77c-16.58-24.28-40.3-36.43-71.17-36.43s-54.6,12.15-71.17,36.43c-16.58,24.29-24.86,57.55-24.86,99.77s8.39,74.47,25.2,98.07c16.79,23.61,40.4,35.41,70.83,35.41s54.02-11.8,70.83-35.41Z"/>
        <path class="cls-17" d="M1962.7,1004.1h-218.61v-74.91l225.42-303.06h119.18v282.62h67.42v95.34h-67.42v98.07h-125.99v-98.07ZM1981.09,908.75v-136.2l-100.11,136.2h100.11Z"/>
      </g>
      <g>
        <g>
          <g>
            <path class="cls-7" d="M1651.82,1023.25l-189.15,2.11c-3.24.04-5.89-2.56-5.93-5.8l-.37-33.17c-.04-3.24,2.56-5.89,5.8-5.93l189.15-2.11c3.24-.04,5.89,2.56,5.93,5.8l.37,33.17c.04,3.24-2.56,5.89-5.8,5.93Z"/>
            <g class="cls-16">
              <rect class="cls-11" x="1450.04" y="1001.86" width="214.22" height="30.5" transform="translate(-11.23 17.4) rotate(-.64)"/>
              <path class="cls-23" d="M1651.65,985.1l-189.64,2.11c-4.83.05-8.78-3.82-8.84-8.64h0c-.05-4.83,3.82-8.78,8.64-8.84l189.64-2.11c4.83-.05,8.78,3.82,8.84,8.64h0c.05,4.83-3.82,8.78-8.64,8.84Z"/>
            </g>
          </g>
          <g>
            <g>
              <rect class="cls-18" x="1479.88" y="980.17" width="18.67" height="44.89" transform="translate(-11.07 16.64) rotate(-.64)"/>
              <rect class="cls-3" x="1480.01" y="1002.61" width="18.67" height="22.45" transform="translate(-11.19 16.64) rotate(-.64)"/>
              <rect class="cls-21" x="1479.67" y="980.17" width="18.67" height="6.74" transform="translate(-10.86 16.64) rotate(-.64)"/>
            </g>
            <g>
              <rect class="cls-18" x="1615.45" y="978.66" width="18.67" height="44.89" transform="translate(-11.04 18.15) rotate(-.64)"/>
              <rect class="cls-3" x="1615.57" y="1001.1" width="18.67" height="22.45" transform="translate(-11.17 18.15) rotate(-.64)"/>
              <rect class="cls-21" x="1615.23" y="978.66" width="18.67" height="6.74" transform="translate(-10.83 18.15) rotate(-.64)"/>
            </g>
          </g>
        </g>
        <g>
          <g>
            <rect class="cls-7" x="1457.06" y="1024.43" width="200.89" height="44.89" rx="5.86" ry="5.86" transform="translate(-11.56 17.4) rotate(-.64)"/>
            <g class="cls-4">
              <rect class="cls-11" x="1450.54" y="1046.88" width="214.22" height="30.5" transform="translate(-11.73 17.41) rotate(-.64)"/>
              <path class="cls-23" d="M1652.15,1030.12l-189.64,2.11c-4.83.05-8.78-3.82-8.84-8.64h0c-.05-4.83,3.82-8.78,8.64-8.84l189.64-2.11c4.83-.05,8.78,3.82,8.84,8.64h0c.05,4.83-3.82,8.78-8.64,8.84Z"/>
            </g>
          </g>
          <g>
            <g>
              <rect class="cls-18" x="1480.39" y="1025.19" width="18.67" height="44.89" transform="translate(-11.57 16.65) rotate(-.64)"/>
              <rect class="cls-3" x="1480.51" y="1047.63" width="18.67" height="22.45" transform="translate(-11.7 16.65) rotate(-.64)"/>
              <rect class="cls-21" x="1480.17" y="1025.19" width="18.67" height="6.74" transform="translate(-11.36 16.65) rotate(-.64)"/>
            </g>
            <g>
              <rect class="cls-18" x="1615.95" y="1023.68" width="18.67" height="44.89" transform="translate(-11.55 18.16) rotate(-.64)"/>
              <rect class="cls-3" x="1616.07" y="1046.13" width="18.67" height="22.45" transform="translate(-11.67 18.16) rotate(-.64)"/>
              <rect class="cls-21" x="1615.73" y="1023.68" width="18.67" height="6.74" transform="translate(-11.33 18.15) rotate(-.64)"/>
            </g>
          </g>
        </g>
        <g>
          <g>
            <rect class="cls-7" x="1457.55" y="1069.03" width="200.89" height="44.89" rx="5.86" ry="5.86" transform="translate(-12.05 17.41) rotate(-.64)"/>
            <g class="cls-14">
              <rect class="cls-11" x="1451.04" y="1091.48" width="214.22" height="30.5" transform="translate(-12.22 17.41) rotate(-.64)"/>
              <path class="cls-23" d="M1652.64,1074.72l-189.64,2.11c-4.83.05-8.78-3.82-8.84-8.64h0c-.05-4.83,3.82-8.78,8.64-8.84l189.64-2.11c4.83-.05,8.78,3.82,8.84,8.64h0c.05,4.83-3.82,8.78-8.64,8.84Z"/>
            </g>
          </g>
          <g>
            <g>
              <rect class="cls-18" x="1480.88" y="1069.79" width="18.67" height="44.89" transform="translate(-12.07 16.66) rotate(-.64)"/>
              <rect class="cls-3" x="1481.01" y="1092.23" width="18.67" height="22.45" transform="translate(-12.19 16.66) rotate(-.64)"/>
              <rect class="cls-21" x="1480.67" y="1069.79" width="18.67" height="6.74" transform="translate(-11.85 16.65) rotate(-.64)"/>
            </g>
            <g>
              <rect class="cls-18" x="1616.44" y="1068.28" width="18.67" height="44.89" transform="translate(-12.04 18.17) rotate(-.64)"/>
              <rect class="cls-3" x="1616.57" y="1090.72" width="18.67" height="22.45" transform="translate(-12.17 18.17) rotate(-.64)"/>
              <rect class="cls-21" x="1616.23" y="1068.28" width="18.67" height="6.74" transform="translate(-11.83 18.16) rotate(-.64)"/>
            </g>
          </g>
        </g>
      </g>
      <g>
        <g>
          <path class="cls-7" d="M2040.84,905.97l2.11,189.15c.04,3.24-2.56,5.89-5.8,5.93l-33.17.37c-3.24.04-5.89-2.56-5.93-5.8l-2.11-189.15c-.04-3.24,2.56-5.89,5.8-5.93l33.17-.37c3.24-.04,5.89,2.56,5.93,5.8Z"/>
          <g class="cls-1">
            <rect class="cls-11" x="1927.59" y="985.4" width="214.22" height="30.5" transform="translate(1056.77 3046.37) rotate(-90.64)"/>
            <path class="cls-23" d="M2002.69,906.15l2.11,189.64c.05,4.83-3.82,8.78-8.64,8.84h0c-4.83.05-8.78-3.82-8.84-8.64l-2.11-189.64c-.05-4.83,3.82-8.78,8.64-8.84h0c4.83-.05,8.78,3.82,8.84,8.64Z"/>
          </g>
        </g>
        <g>
          <g>
            <rect class="cls-18" x="2010.87" y="1046.14" width="18.67" height="44.89" transform="translate(974.19 3100.56) rotate(-90.64)"/>
            <rect class="cls-3" x="2022.09" y="1057.23" width="18.67" height="22.45" transform="translate(985.66 3111.66) rotate(-90.64)"/>
            <rect class="cls-21" x="1991.8" y="1065.42" width="18.67" height="6.74" transform="translate(954.68 3081.7) rotate(-90.64)"/>
          </g>
          <g>
            <rect class="cls-18" x="2009.36" y="910.57" width="18.67" height="44.89" transform="translate(1108.21 2961.98) rotate(-90.64)"/>
            <rect class="cls-3" x="2020.59" y="921.67" width="18.67" height="22.45" transform="translate(1119.68 2973.07) rotate(-90.64)"/>
            <rect class="cls-21" x="1990.29" y="929.86" width="18.67" height="6.74" transform="translate(1088.72 2943.12) rotate(-90.64)"/>
          </g>
        </g>
      </g>
      <g>
        <g>
          <path class="cls-7" d="M2085.86,905.47l2.11,189.15c.04,3.24-2.56,5.89-5.8,5.93l-33.17.37c-3.24.04-5.89-2.56-5.93-5.8l-2.11-189.15c-.04-3.24,2.56-5.89,5.8-5.93l33.17-.37c3.24-.04,5.89,2.56,5.93,5.8Z"/>
          <g class="cls-2">
            <rect class="cls-11" x="1972.62" y="984.9" width="214.22" height="30.5" transform="translate(1102.79 3090.88) rotate(-90.64)"/>
            <path class="cls-23" d="M2047.71,905.65l2.11,189.64c.05,4.83-3.82,8.78-8.64,8.84h0c-4.83.05-8.78-3.82-8.84-8.64l-2.11-189.64c-.05-4.83,3.82-8.78,8.64-8.84h0c4.83-.05,8.78,3.82,8.84,8.64Z"/>
          </g>
        </g>
        <g>
          <g>
            <rect class="cls-18" x="2055.89" y="1045.63" width="18.67" height="44.89" transform="translate(1020.2 3145.07) rotate(-90.64)"/>
            <rect class="cls-3" x="2067.12" y="1056.73" width="18.67" height="22.45" transform="translate(1031.68 3156.16) rotate(-90.64)"/>
            <rect class="cls-21" x="2036.82" y="1064.92" width="18.67" height="6.74" transform="translate(1000.69 3126.2) rotate(-90.64)"/>
          </g>
          <g>
            <rect class="cls-18" x="2054.38" y="910.07" width="18.67" height="44.89" transform="translate(1154.23 3006.49) rotate(-90.64)"/>
            <rect class="cls-3" x="2065.61" y="921.17" width="18.67" height="22.45" transform="translate(1165.7 3017.58) rotate(-90.64)"/>
            <rect class="cls-21" x="2035.31" y="929.36" width="18.67" height="6.74" transform="translate(1134.73 2987.63) rotate(-90.64)"/>
          </g>
        </g>
      </g>
      <g>
        <g>
          <path class="cls-7" d="M2130.46,904.98l2.11,189.15c.04,3.24-2.56,5.89-5.8,5.93l-33.17.37c-3.24.04-5.89-2.56-5.93-5.8l-2.11-189.15c-.04-3.24,2.56-5.89,5.8-5.93l33.17-.37c3.24-.04,5.89,2.56,5.93,5.8Z"/>
          <g class="cls-15">
            <rect class="cls-11" x="2017.22" y="984.4" width="214.22" height="30.5" transform="translate(1148.38 3134.97) rotate(-90.64)"/>
            <path class="cls-23" d="M2092.31,905.16l2.11,189.64c.05,4.83-3.82,8.78-8.64,8.84h0c-4.83.05-8.78-3.82-8.84-8.64l-2.11-189.64c-.05-4.83,3.82-8.78,8.64-8.84h0c4.83-.05,8.78,3.82,8.84,8.64Z"/>
          </g>
        </g>
        <g>
          <g>
            <rect class="cls-18" x="2100.49" y="1045.14" width="18.67" height="44.89" transform="translate(1065.78 3189.16) rotate(-90.64)"/>
            <rect class="cls-3" x="2111.72" y="1056.24" width="18.67" height="22.45" transform="translate(1077.26 3200.25) rotate(-90.64)"/>
            <rect class="cls-21" x="2081.42" y="1064.43" width="18.67" height="6.74" transform="translate(1046.31 3170.31) rotate(-90.64)"/>
          </g>
          <g>
            <rect class="cls-18" x="2098.98" y="909.58" width="18.67" height="44.89" transform="translate(1199.82 3050.58) rotate(-90.64)"/>
            <rect class="cls-3" x="2110.21" y="920.67" width="18.67" height="22.45" transform="translate(1211.3 3061.68) rotate(-90.64)"/>
            <rect class="cls-21" x="2079.91" y="928.86" width="18.67" height="6.74" transform="translate(1180.32 3031.72) rotate(-90.64)"/>
          </g>
        </g>
      </g>
      <path class="cls-20" d="M798.61,1357.2c-41.05,0-74.45-33.4-74.45-74.45s33.4-74.45,74.45-74.45h876.55c28.12,0,51-22.88,51-51v-4.98h75.53c27.38,0,49.66-22.28,49.66-49.66v-205.15c0-26.73,21.75-48.48,48.48-48.48h142.71c9.41,0,17.07,7.66,17.07,17.07v.8h-20.98c-12.43,0-22.53,10.11-22.53,22.53v10.91h8.2v-10.91c0-7.91,6.43-14.34,14.34-14.34h20.98v25.24h8.2v-25.24h22.06c7.91,0,14.34,6.43,14.34,14.34v9.93h8.2v-9.93c0-12.43-10.11-22.53-22.53-22.53h-22.06v-.8c0-13.93-11.34-25.27-25.27-25.27h-142.71c-31.25,0-56.68,25.42-56.68,56.68v205.15c0,22.86-18.6,41.46-41.46,41.46h-75.53v-61.26c0-19.69-13.88-36.18-32.37-40.24v-23.87c0-12.97-10.56-23.53-23.53-23.53h-12.84v8.2h12.84c8.45,0,15.33,6.88,15.33,15.33v22.92c-.21,0-.42-.02-.64-.02h-27.03v8.2h27.03c.21,0,.42.01.64.02v24.77c0,6.47-5.26,11.73-11.73,11.73h-15.44v8.2h15.44c10.99,0,19.93-8.94,19.93-19.93v-23.58c13.92,3.87,24.17,16.65,24.17,31.79v74.43c0,23.6-19.2,42.81-42.81,42.81h-541.88v-271.69c0-28.61-23.27-51.88-51.88-51.88h-41.49c-12.19,0-22.1,9.91-22.1,22.1h8.2c0-7.67,6.24-13.9,13.9-13.9h41.49c24.09,0,43.68,19.6,43.68,43.68v271.69h-326.48c-45.57,0-82.65,37.07-82.65,82.65s37.07,82.65,82.65,82.65h1453.11v-8.2H798.61Z"/>
      <g>
        <rect class="cls-18" x="2219.57" y="1233.64" width="8.49" height="48.83"/>
        <rect class="cls-3" x="2204.23" y="1282.47" width="39.16" height="7.42"/>
        <rect class="cls-3" x="2203.72" y="1226.22" width="39.16" height="7.42"/>
        <path class="cls-8" d="M2280.32,1297.33h-112.96c-2.05,0-3.72-1.66-3.72-3.72h0c0-2.05,1.66-3.72,3.72-3.72h112.96c2.05,0,3.72,1.66,3.72,3.72h0c0,2.05-1.66,3.72-3.72,3.72Z"/>
        <path class="cls-8" d="M2280.32,1409.09h-112.96c-2.05,0-3.72-1.66-3.72-3.72h0c0-2.05,1.66-3.72,3.72-3.72h112.96c2.05,0,3.72,1.66,3.72,3.72h0c0,2.05-1.66,3.72-3.72,3.72Z"/>
        <rect class="cls-5" x="2171.14" y="1297.33" width="104.33" height="104.33"/>
        <g>
          <rect class="cls-11" x="2185.25" y="1205.67" width="76.1" height="20.55" rx="3.65" ry="3.65"/>
          <g class="cls-9">
            <path class="cls-7" d="M2264.3,1213.01h-77.56c-3.51,0-6.36-2.85-6.36-6.36h0c0-3.51,2.85-6.36,6.36-6.36h77.56c3.51,0,6.36,2.85,6.36,6.36h0c0,3.51-2.85,6.36-6.36,6.36Z"/>
          </g>
        </g>
        <polygon class="cls-6" points="2181.72 1297.33 2181.72 1307.06 2247.96 1307.06 2247.96 1393.65 2181.72 1393.65 2181.72 1401.66 2275.47 1401.66 2275.47 1297.33 2181.72 1297.33"/>
        <g>
          <rect class="cls-8" x="2187.14" y="1297.33" width="4.51" height="104.33"/>
          <rect class="cls-8" x="2209.71" y="1297.33" width="4.51" height="104.33"/>
          <rect class="cls-8" x="2232.91" y="1297.33" width="4.51" height="104.33"/>
          <rect class="cls-8" x="2255.49" y="1297.33" width="4.51" height="104.33"/>
        </g>
      </g>
    </g>
  </g>
</svg>